<?xml version="1.0" encoding="utf-8"?>
<svg version="1.1" xmlns="http://www.w3.org/2000/svg" xmlns:xlink="http://www.w3.org/1999/xlink" x="0px" y="0px"
	 viewBox="0 0 126.5 94.5" style="enable-background:new 0 0 126.5 94.5;" xml:space="preserve">
<style type="text/css">
	.st0{fill:#003E7E;}
	.st1{fill:#B5121B;}
	.st2{fill:#FFFFFF;}
	.st3{fill:#8896BF;}
</style>
<g id="Layer_1">
</g>
<g id="Layer_2">
	<g>
		<polygon class="st2" points="60.9,59.7 60.9,59.7 60.5,60.9 		"/>
		<path class="st2" d="M104.2,23.1H87.5l-2.5,8l0,0l-0.1,0.2l0,0l-0.7,2.3l-7.7,24.8c-2.3-3.9-4-8.6-5.3-14.4
			c6.3-3.3,10-7.1,11.4-11.6c1.8-5.7-1.2-9.3-8.8-9.3h-7.8l0,0h-7.9l-0.6,1.8l-2,6.5l0,0l6.6,0l6.5,0l-2.9,9.4l-8.3,0l0,0l-4.7,0
			l-3.4,11l-2.5,8h0l-4.5,14.3l-2.5,8h9.9l3-9.8l0,0l2.4-7.6l3.4-11l0.4-1.3l1.9-6.3c0.9,4.8,2.1,9.3,3.9,13.5h11.3l0,0h14.2
			c5.4,0,9.3-0.1,12.3-1.7c3.2-1.6,5.4-4.3,6.5-7.7c1.2-3.9,0.2-7.6-3.1-10.6c4-2.6,6.4-5.3,7.4-8.6C115,25.8,112,23.1,104.2,23.1z
			 M102,33.1c-0.5,1.6-3.8,3.9-10,7.2c5.2,3.4,7.3,6.3,6.5,9.1c-0.4,1.4-1.5,2-3.3,2h-6.9l5.4-17.3l0,0l0.4-1.3h0l0.4-1.5h5.3
			C101.7,31.3,102.4,31.8,102,33.1z M37.8,40.8l-1.3,0l-7.3,0h0.7l2.9-9.4l1.2,0l6.7,0l1.6,0l0,0l0.5,0l2.9,0l0,0l2-6.4l0.6-1.8h0v0
			l-12.2,0c-4.6,0-7.7,0.5-10.6,3.2c-1.6,1.5-2.8,3.4-3.4,5.4c-0.8,2.5-0.6,5,0.6,7.1l5.7,9.8c0.3,0.6,0.4,1.1,0.3,1.5
			c-0.3,0.9-1,1.3-2.1,1.3H15.4L13.3,58h0l-0.6,1.8l0,0h11.4c4.3,0,7.3-0.2,10.1-1.8c2.4-1.4,4.2-3.7,5.1-6.2h0l3.4-11L37.8,40.8z"
			/>
	</g>
</g>
</svg>
